<?xml version="1.0" encoding="UTF-8"?>
<svg id="Laag_1" xmlns="http://www.w3.org/2000/svg" viewBox="0 0 937.08 351.77">
  <defs>
    <style>
      .cls-1 {
        fill: #1d1d1b;
      }
    </style>
  </defs>
  <g>
    <polygon class="cls-1" points="35.17 206.59 66.68 202.74 66.68 351.77 32.47 334.66 32.47 205.24 .96 189.49 .96 127.1 186.72 104.35 220.94 121.45 35.17 144.2 35.17 206.59"/>
    <polygon class="cls-1" points="220.94 17.11 35.17 39.85 35.17 102.25 .96 85.14 .96 22.75 186.72 0 220.94 17.11"/>
  </g>
  <g>
    <path class="cls-1" d="M139.8,262.76v-66.73c0-1.96,1.14-3.1,3.1-3.1h53.82c1.96,0,3.1,1.14,3.1,3.1v11.36c0,1.96-1.14,3.1-3.1,3.1h-38.64v10.74h23.24c1.96,0,3.1,1.14,3.1,3.1v9.71c0,1.96-1.14,3.1-3.1,3.1h-23.24v25.62c0,1.96-1.14,3.1-3.1,3.1h-12.09c-1.96,0-3.1-1.14-3.1-3.1Z"/>
    <path class="cls-1" d="M274.5,263.48l-3.72-8.99h-35.43l-3.72,8.99c-.62,1.55-1.86,2.38-3.62,2.38h-13.84c-2.38,0-3.31-1.45-2.38-3.62l30.47-66.94c.72-1.65,1.86-2.38,3.62-2.38h14.36c1.76,0,2.89.72,3.62,2.38l30.47,66.94c.93,2.17,0,3.62-2.38,3.62h-13.84c-1.76,0-3-.83-3.62-2.38ZM264.68,239.62l-11.57-27.89-11.57,27.89h23.14Z"/>
    <path class="cls-1" d="M323.14,262.76v-66.73c0-1.96,1.14-3.1,3.1-3.1h12.09c1.96,0,3.1,1.14,3.1,3.1v66.73c0,1.96-1.14,3.1-3.1,3.1h-12.09c-1.96,0-3.1-1.14-3.1-3.1Z"/>
    <path class="cls-1" d="M431.6,247.16l10.43,14.98c1.45,2.17.52,3.72-1.96,3.72h-13.95c-1.65,0-2.89-.62-3.72-2.07l-9.09-14.57h-19.83v13.53c0,1.96-1.14,3.1-3.1,3.1h-12.19c-1.96,0-3.1-1.14-3.1-3.1v-66.73c0-1.96,1.14-3.1,3.1-3.1h37.5c20.66,0,29.54,9.71,29.54,27.38v1.96c0,11.88-3.93,20.97-13.64,24.9ZM393.48,231.87h20.66c7.75,0,12.6-1.03,12.6-9.81v-1.65c0-8.78-4.55-9.92-12.6-9.92h-20.66v21.38Z"/>
    <path class="cls-1" d="M474.77,244.47c-.1-2.07,1.14-3.2,3.1-3.2h12.29c1.86,0,2.69,1.03,3.2,3,.72,2.79,2.58,4.03,5.78,4.03h20.76c4.55,0,6.51-1.24,6.51-4.96s-1.65-5.06-5.89-5.37l-23.35-1.76c-15.81-1.24-22-7.13-22-20.87s7.02-22.42,24.48-22.42h19.42c15.6,0,23.35,7.64,24.38,21.38.1,2.07-1.14,3.2-3.1,3.2h-12.29c-1.86,0-2.69-1.03-3.2-3-.72-2.79-2.58-4.03-5.78-4.03h-19.21c-4.55,0-6.51,1.24-6.51,4.96s1.65,4.96,5.89,5.27l23.35,1.76c15.7,1.14,22,7.33,22,20.97s-7.03,22.42-24.48,22.42h-20.97c-15.6,0-23.35-7.64-24.38-21.38Z"/>
    <path class="cls-1" d="M576.41,262.76v-66.73c0-1.96,1.14-3.1,3.1-3.1h37.6c20.45,0,28.41,9.71,28.41,27.38v3c0,17.66-7.96,26.96-28.41,26.96h-22.31v12.5c0,1.96-1.14,3.1-3.1,3.1h-12.19c-1.96,0-3.1-1.14-3.1-3.1ZM615.46,232.9c7.23,0,11.67-1.03,11.67-9.81v-2.69c0-8.78-4.13-9.92-11.67-9.92h-20.66v22.42h20.66Z"/>
    <path class="cls-1" d="M727.84,263.48l-3.72-8.99h-35.43l-3.72,8.99c-.62,1.55-1.86,2.38-3.62,2.38h-13.84c-2.38,0-3.31-1.45-2.38-3.62l30.47-66.94c.72-1.65,1.86-2.38,3.62-2.38h14.36c1.76,0,2.89.72,3.62,2.38l30.47,66.94c.93,2.17,0,3.62-2.38,3.62h-13.84c-1.76,0-3-.83-3.62-2.38ZM718.03,239.62l-11.57-27.89-11.57,27.89h23.14Z"/>
    <path class="cls-1" d="M773.08,240.75v-22.62c0-14.88,7.95-25.21,24.48-25.21h23.04c16.53,0,24.48,10.33,24.48,25.21,0,1.86-1.14,2.89-3.1,2.89h-12.19c-1.96,0-3.1-.62-3.1-1.76v-1.76c0-6.3-2.17-7.02-6.09-7.02h-23.04c-3.93,0-6.1.72-6.1,7.02v23.86c0,6.2,2.48,6.92,6.1,6.92h23.04c3.62,0,6.09-.72,6.09-6.92v-1.55c0-1.96,1.14-3.1,3.1-3.1h12.19c1.96,0,3.1.72,3.1,1.96v2.07c0,14.77-7.95,25.1-24.48,25.1h-23.04c-16.53,0-24.48-10.33-24.48-25.1Z"/>
    <path class="cls-1" d="M876.37,262.76v-66.73c0-1.96,1.14-3.1,3.1-3.1h55.47c1.96,0,3.1,1.14,3.1,3.1v11.36c0,1.96-1.14,3.1-3.1,3.1h-40.29v10.74h24.48c1.96,0,3.1,1.14,3.1,3.1v9.71c0,1.96-1.14,3.1-3.1,3.1h-24.48v11.16h40.29c1.96,0,3.1,1.14,3.1,3.1v11.36c0,1.96-1.14,3.1-3.1,3.1h-55.47c-1.96,0-3.1-1.14-3.1-3.1Z"/>
  </g>
</svg>